<?xml version="1.0" encoding="UTF-8" standalone="no"?>
<!-- Created with Inkscape (http://www.inkscape.org/) -->

<svg
   version="1.1"
   id="svg9"
   width="2400"
   height="1866.6667"
   viewBox="0 0 2400 1866.6667"
   sodipodi:docname="restaurant.svg"
   inkscape:version="1.1.1 (3bf5ae0d25, 2021-09-20)"
   xmlns:inkscape="http://www.inkscape.org/namespaces/inkscape"
   xmlns:sodipodi="http://sodipodi.sourceforge.net/DTD/sodipodi-0.dtd"
   xmlns="http://www.w3.org/2000/svg"
   xmlns:svg="http://www.w3.org/2000/svg">
  <defs
     id="defs13" />
  <sodipodi:namedview
     id="namedview11"
     pagecolor="#ffffff"
     bordercolor="#666666"
     borderopacity="1.0"
     inkscape:pageshadow="2"
     inkscape:pageopacity="0.0"
     inkscape:pagecheckerboard="0"
     showgrid="false"
     inkscape:zoom="0.43339284"
     inkscape:cx="1102.9255"
     inkscape:cy="817.9646"
     inkscape:window-width="1920"
     inkscape:window-height="1017"
     inkscape:window-x="-8"
     inkscape:window-y="-8"
     inkscape:window-maximized="1"
     inkscape:current-layer="g15" />
  <g
     inkscape:groupmode="layer"
     inkscape:label="Image"
     id="g15">
    <g
       id="g99">
      <path
         style="fill:#cccccc;stroke-width:1.33333"
         d="M 232,1106.6667 V 1080 h 66.66667 66.66666 v 26.6667 26.6667 H 298.66667 232 Z m 1380,0 V 1080 h 66.6667 66.6666 v 26.6667 26.6667 H 1678.6667 1612 Z M 989.33333,342.66667 V 276 H 1016 h 26.6667 v 66.66667 66.66667 H 1016 989.33333 Z M 1085.3333,49.333334 V 22.666667 H 1152 1218.6667 V 49.333334 76.000001 H 1152 1085.3333 Z m 1050.6667,0 V 22.666667 h 66.6667 66.6666 V 49.333334 76.000001 H 2202.6667 2136 Z"
         id="path109" />
      <path
         style="fill:#caa574;stroke-width:1.33333"
         d="m 761.33333,1646.6667 v -100 H 808 854.66667 v 100 100 H 808 761.33333 Z m 362.66667,0 v -100 h 46.6667 46.6666 v 100 100 H 1170.6667 1124 Z m 868,0 v -100 h 46.6667 46.6666 v 100 100 H 2038.6667 1992 Z M 54.666667,1624 v -46.6666 H 101.33333 148 V 1624 1670.6667 H 101.33333 54.666667 Z M 432,1624 v -46.6666 h 46.66667 46.66666 V 1624 1670.6667 H 478.66667 432 Z m 976,0 v -46.6666 h 46.6667 46.6666 V 1624 1670.6667 H 1454.6667 1408 Z M 764,1326.6667 v -100 h 46.66667 46.66666 v 100 100 H 810.66667 764 Z m 362.6667,0 v -100 H 1173.3333 1220 v 100 100 h -46.6667 -46.6666 z m 868,0 v -100 H 2041.3333 2088 v 100 100 h -46.6667 -46.6666 z M 54.666667,1357.3334 v -46.6667 H 101.33333 148 V 1357.3334 1404 H 101.33333 54.666667 Z m 377.333333,0 v -46.6667 h 46.66667 46.66666 V 1357.3334 1404 H 478.66667 432 Z m 976,0 v -46.6667 h 46.6667 46.6666 V 1357.3334 1404 H 1454.6667 1408 Z M 572,1056 v -46.6666 h 46.66667 46.66666 V 1056 1102.6667 H 618.66667 572 Z m 248,0 v -46.6666 h 46.66667 46.66666 V 1056 1102.6667 H 866.66667 820 Z m 321.3333,0 v -46.6666 H 1188 1234.6667 V 1056 1102.6667 H 1188 1141.3333 Z m 248,0 v -46.6666 H 1436 1482.6667 V 1056 1102.6667 H 1436 1389.3333 Z m 485.3334,0 v -46.6666 H 1921.3333 1968 V 1056 v 46.6667 h -46.6667 -46.6666 z m 248,0 v -46.6666 H 2169.3333 2216 V 1056 v 46.6667 h -46.6667 -46.6666 z M 62.666667,882.66668 V 836.00001 H 109.33333 156 v 46.66667 46.66667 H 109.33333 62.666667 Z M 484,836.00001 v -46.66666 h 100 100 v 46.66666 46.66667 H 584 484 Z m 328,0 v -46.66666 h 100 100 v 46.66666 46.66667 H 912 812 Z m 209.3333,0 v -46.66666 h 100 100 v 46.66666 46.66667 h -100 -100 z m 328,0 v -46.66666 h 100 100 v 46.66666 46.66667 h -100 -100 z m 458.6667,0 v -46.66666 h 100 100 v 46.66666 46.66667 h -100 -100 z m 328,0 v -46.66666 h 100 100 v 46.66666 46.66667 h -100 -100 z m -2073.333333,-220 V 569.33334 H 109.33333 156 v 46.66667 46.66667 H 109.33333 62.666667 Z M 484,569.33334 v -46.66666 h 100 100 v 46.66666 46.66667 H 584 484 Z m 328,0 v -46.66666 h 100 100 v 46.66666 46.66667 H 912 812 Z m 209.3333,0 v -46.66666 h 100 100 v 46.66666 46.66667 h -100 -100 z m 328,0 v -46.66666 h 100 100 v 46.66666 46.66667 h -100 -100 z m 458.6667,0 v -46.66666 h 100 100 v 46.66666 46.66667 h -100 -100 z m 328,0 v -46.66666 h 100 100 v 46.66666 46.66667 h -100 -100 z m -2073.333333,-220 V 302.66667 H 109.33333 156 v 46.66667 46.66667 H 109.33333 62.666667 Z M 1298.6667,218.66667 v -40 h 340 340 v -62 -62.000002 h 40 40 v 102.000002 102 h -380 -380 z M 156,101.33334 V 54.666668 h 46.66667 46.66666 V 101.33334 148 H 202.66667 156 Z m 224,0 V 54.666668 h 46.66667 46.66666 V 101.33334 148 H 426.66667 380 Z m 224,0 V 54.666668 h 46.66667 46.66666 V 101.33334 148 H 650.66667 604 Z m 224,0 V 54.666668 h 46.66667 46.66666 V 101.33334 148 H 874.66667 828 Z"
         id="path107" />
      <path
         style="fill:#b0906b;stroke-width:1.33333"
         d="m 1371.8299,293.66667 c -1.6584,-2.11474 -1.6114,-2.1619 0.5034,-0.50341 1.2834,1.00647 2.3334,2.05647 2.3334,2.33333 0,1.09739 -1.095,0.39108 -2.8368,-1.82992 z m 45.5034,1.82992 c 0,-0.27686 1.05,-1.32686 2.3334,-2.33333 2.1148,-1.65849 2.1618,-1.61133 0.5034,0.50341 -1.7418,2.221 -2.8368,2.92731 -2.8368,1.82992 z m 67.8299,-1.82992 c -1.6584,-2.11474 -1.6113,-2.1619 0.5035,-0.50341 2.2209,1.74183 2.9273,2.83675 1.8298,2.83675 -0.2768,0 -1.3268,-1.05 -2.3333,-2.33334 z m 45.5035,1.82992 c 0,-0.27686 1.05,-1.32686 2.3333,-2.33333 2.1148,-1.65849 2.1619,-1.61133 0.5035,0.50341 -1.7419,2.221 -2.8368,2.92731 -2.8368,1.82992 z m 67.8298,-1.82992 c -1.6584,-2.11474 -1.6113,-2.1619 0.5035,-0.50341 2.2209,1.74183 2.9273,2.83675 1.8299,2.83675 -0.2768,0 -1.3268,-1.05 -2.3334,-2.33334 z M 1644,295.49659 c 0,-0.27686 1.05,-1.32686 2.3333,-2.33333 2.1148,-1.65849 2.1619,-1.61133 0.5035,0.50341 -1.7419,2.221 -2.8368,2.92731 -2.8368,1.82992 z m 67.8299,-1.82992 c -1.6584,-2.11474 -1.6114,-2.1619 0.5034,-0.50341 2.221,1.74183 2.9274,2.83675 1.8299,2.83675 -0.2768,0 -1.3268,-1.05 -2.3333,-2.33334 z m 45.5034,1.82992 c 0,-0.27686 1.05,-1.32686 2.3334,-2.33333 2.1148,-1.65849 2.1618,-1.61133 0.5034,0.50341 -1.7418,2.221 -2.8368,2.92731 -2.8368,1.82992 z m 67.8299,-1.82992 c -1.6584,-2.11474 -1.6113,-2.1619 0.5035,-0.50341 2.2209,1.74183 2.9273,2.83675 1.8298,2.83675 -0.2768,0 -1.3268,-1.05 -2.3333,-2.33334 z m 45.5035,1.82992 c 0,-0.27686 1.05,-1.32686 2.3333,-2.33333 2.1148,-1.65849 2.1619,-1.61133 0.5035,0.50341 -1.7419,2.221 -2.8368,2.92731 -2.8368,1.82992 z m 67.8298,-1.82992 c -1.6584,-2.11474 -1.6113,-2.1619 0.5035,-0.50341 2.2209,1.74183 2.9273,2.83675 1.8299,2.83675 -0.2768,0 -1.3268,-1.05 -2.3334,-2.33334 z M 1984,295.49659 c 0,-0.27686 1.05,-1.32686 2.3333,-2.33333 2.1148,-1.65849 2.1619,-1.61133 0.5035,0.50341 -1.7419,2.221 -2.8368,2.92731 -2.8368,1.82992 z"
         id="path105" />
      <path
         style="fill:#808080;stroke-width:1.33333"
         d="M 54.666667,578.66668 V 45.333334 H 570 1085.3333 v 4.666667 4.666667 h -32 -32 V 165.33334 276 H 1016.6667 1012 V 165.33334 54.666668 H 538 64 L 63.851153,178.66667 c -0.08187,68.2 -0.148846,265 -0.148846,437.33334 0,172.33334 0.06699,352.33334 0.148846,399.99999 L 64,1102.6667 h 84 84 v 4.6667 V 1112 H 143.33333 54.666667 Z M 365.33333,1107.3334 v -4.6667 H 688.66667 1012 V 756.00001 409.33334 h 4.6667 4.6666 V 756.00001 1102.6667 H 1316.6667 1612 v 4.6667 V 1112 H 988.66667 365.33333 Z m 1379.99997,0 v -4.6667 H 2040.6667 2336 V 578.66668 54.666668 h -33.3333 -33.3334 v -4.666667 -4.666667 h 38 38 V 578.66668 1112 h -300 -300 z M 1218.6667,50.000001 V 45.333334 H 1677.3333 2136 v 4.666667 4.666667 h -458.6667 -458.6666 z"
         id="path103" />
      <path
         style="fill:#956938;stroke-width:1.33333"
         d="M 728,1693.3334 V 1660 h 16.66667 16.66666 v 33.3334 33.3333 H 744.66667 728 Z m 126.66667,0 V 1660 H 871.33333 888 v 33.3334 33.3333 h -16.66667 -16.66666 z m 236.00003,0 V 1660 H 1107.3333 1124 v 33.3334 33.3333 h -16.6667 -16.6666 z m 126.6666,0 V 1660 H 1234 h 16.6667 v 33.3334 33.3333 H 1234 1217.3333 Z m 741.3334,0 V 1660 H 1975.3333 1992 v 33.3334 33.3333 h -16.6667 -16.6666 z m 126.6666,0 V 1660 H 2102 h 16.6667 v 33.3334 33.3333 H 2102 2085.3333 Z M 68,1687.3334 v -16.6667 h 33.33333 33.33334 V 1687.3334 1704 H 101.33333 68 Z m 377.33333,0 v -16.6667 H 478.66667 512 V 1687.3334 1704 h -33.33333 -33.33334 z m 975.99997,0 v -16.6667 H 1454.6667 1488 V 1687.3334 1704 h -33.3333 -33.3334 z M 728,1600 v -33.3333 h 16.66667 16.66666 V 1600 1633.3334 H 744.66667 728 Z m 126.66667,0 v -33.3333 H 871.33333 888 V 1600 v 33.3334 h -16.66667 -16.66666 z m 236.00003,0 v -33.3333 H 1107.3333 1124 V 1600 v 33.3334 h -16.6667 -16.6666 z m 126.6666,0 v -33.3333 H 1234 1250.6667 V 1600 1633.3334 H 1234 1217.3333 Z m 741.3334,0 v -33.3333 H 1975.3333 1992 V 1600 v 33.3334 h -16.6667 -16.6666 z m 126.6666,0 v -33.3333 H 2102 2118.6667 V 1600 1633.3334 H 2102 2085.3333 Z M 68,1560.6667 V 1544 h 33.33333 33.33334 v 16.6667 16.6667 H 101.33333 68 Z m 377.33333,0 V 1544 H 478.66667 512 v 16.6667 16.6667 h -33.33333 -33.33334 z m 975.99997,0 V 1544 H 1454.6667 1488 v 16.6667 16.6667 h -33.3333 -33.3334 z M 68,1420.6667 V 1404 h 33.33333 33.33334 v 16.6667 16.6667 H 101.33333 68 Z m 377.33333,0 V 1404 H 478.66667 512 v 16.6667 16.6667 h -33.33333 -33.33334 z m 975.99997,0 V 1404 H 1454.6667 1488 v 16.6667 16.6667 h -33.3333 -33.3334 z M 730.66667,1373.3334 V 1340 H 747.33333 764 v 33.3334 33.3333 h -16.66667 -16.66666 z m 126.66666,0 V 1340 H 874 890.66667 v 33.3334 33.3333 H 874 857.33333 Z m 235.99997,0 V 1340 H 1110 h 16.6667 v 33.3334 33.3333 H 1110 1093.3333 Z m 126.6667,0 V 1340 h 16.6667 16.6666 v 33.3334 33.3333 H 1236.6667 1220 Z m 741.3333,0 V 1340 H 1978 h 16.6667 v 33.3334 33.3333 H 1978 1961.3333 Z m 126.6667,0 V 1340 h 16.6667 16.6666 v 33.3334 33.3333 H 2104.6667 2088 Z M 730.66667,1280 v -33.3333 H 747.33333 764 V 1280 v 33.3334 h -16.66667 -16.66666 z m 126.66666,0 v -33.3333 H 874 890.66667 V 1280 1313.3334 H 874 857.33333 Z m 235.99997,0 v -33.3333 H 1110 1126.6667 V 1280 1313.3334 H 1110 1093.3333 Z M 1220,1280 v -33.3333 h 16.6667 16.6666 V 1280 1313.3334 H 1236.6667 1220 Z m 741.3333,0 v -33.3333 H 1978 1994.6667 V 1280 1313.3334 H 1978 1961.3333 Z M 2088,1280 v -33.3333 h 16.6667 16.6666 V 1280 1313.3334 H 2104.6667 2088 Z M 68,1294 v -16.6666 h 33.33333 33.33334 V 1294 1310.6667 H 101.33333 68 Z m 377.33333,0 v -16.6666 H 478.66667 512 V 1294 v 16.6667 h -33.33333 -33.33334 z m 975.99997,0 v -16.6666 H 1454.6667 1488 V 1294 v 16.6667 h -33.3333 -33.3334 z M 538.66667,1056 v -33.3333 H 555.33333 572 V 1056 v 33.3334 h -16.66667 -16.66666 z m 126.66666,0 v -33.3333 H 682 698.66667 V 1056 1089.3334 H 682 665.33333 Z m 121.33334,0 v -33.3333 H 803.33333 820 V 1056 v 33.3334 h -16.66667 -16.66666 z m 126.66666,0 v -33.3333 H 930 946.66667 V 1056 1089.3334 H 930 913.33333 Z M 1108,1056 v -33.3333 h 16.6667 16.6666 V 1056 1089.3334 H 1124.6667 1108 Z m 126.6667,0 v -33.3333 H 1251.3333 1268 V 1056 v 33.3334 h -16.6667 -16.6666 z M 1356,1056 v -33.3333 h 16.6667 16.6666 V 1056 1089.3334 H 1372.6667 1356 Z m 126.6667,0 v -33.3333 H 1499.3333 1516 V 1056 v 33.3334 h -16.6667 -16.6666 z m 358.6666,0 v -33.3333 H 1858 1874.6667 V 1056 1089.3334 H 1858 1841.3333 Z M 1968,1056 v -33.3333 h 16.6667 16.6666 V 1056 1089.3334 H 1984.6667 1968 Z m 121.3333,0 v -33.3333 H 2106 2122.6667 V 1056 1089.3334 H 2106 2089.3333 Z M 2216,1056 v -33.3333 h 16.6667 16.6666 V 1056 1089.3334 H 2232.6667 2216 Z M 76,946.00002 v -16.66667 h 33.33333 33.33334 v 16.66667 16.66666 H 109.33333 76 Z m 428,-46.66667 v -16.66667 h 33.33333 33.33334 v 16.66667 16.66667 H 537.33333 504 Z m 93.33333,0 V 882.66668 H 630.66667 664 v 16.66667 16.66667 h -33.33333 -33.33334 z m 234.66667,0 v -16.66667 h 33.33333 33.33334 v 16.66667 16.66667 H 865.33333 832 Z m 93.33333,0 V 882.66668 H 958.66667 992 v 16.66667 16.66667 h -33.33333 -33.33334 z m 115.99997,0 V 882.66668 H 1074.6667 1108 v 16.66667 16.66667 h -33.3333 -33.3334 z m 93.3334,0 V 882.66668 H 1168 h 33.3333 v 16.66667 16.66667 H 1168 1134.6667 Z m 234.6666,0 V 882.66668 H 1402.6667 1436 v 16.66667 16.66667 h -33.3333 -33.3334 z m 93.3334,0 V 882.66668 H 1496 h 33.3333 v 16.66667 16.66667 H 1496 1462.6667 Z m 365.3333,0 v -16.66667 h 33.3333 33.3334 v 16.66667 16.66667 H 1861.3333 1828 Z m 93.3333,0 V 882.66668 H 1954.6667 1988 v 16.66667 16.66667 h -33.3333 -33.3334 z m 234.6667,0 v -16.66667 h 33.3333 33.3334 v 16.66667 16.66667 H 2189.3333 2156 Z m 93.3333,0 V 882.66668 H 2282.6667 2316 v 16.66667 16.66667 h -33.3333 -33.3334 z M 76,819.33335 v -16.66667 h 33.33333 33.33334 v 16.66667 16.66666 H 109.33333 76 Z m 428,-46.66667 v -16.66667 h 33.33333 33.33334 v 16.66667 16.66667 H 537.33333 504 Z m 93.33333,0 V 756.00001 H 630.66667 664 v 16.66667 16.66667 h -33.33333 -33.33334 z m 234.66667,0 v -16.66667 h 33.33333 33.33334 v 16.66667 16.66667 H 865.33333 832 Z m 93.33333,0 V 756.00001 H 958.66667 992 v 16.66667 16.66667 h -33.33333 -33.33334 z m 115.99997,0 V 756.00001 H 1074.6667 1108 v 16.66667 16.66667 h -33.3333 -33.3334 z m 93.3334,0 V 756.00001 H 1168 h 33.3333 v 16.66667 16.66667 H 1168 1134.6667 Z m 234.6666,0 V 756.00001 H 1402.6667 1436 v 16.66667 16.66667 h -33.3333 -33.3334 z m 93.3334,0 V 756.00001 H 1496 h 33.3333 v 16.66667 16.66667 H 1496 1462.6667 Z m 365.3333,0 v -16.66667 h 33.3333 33.3334 v 16.66667 16.66667 H 1861.3333 1828 Z m 93.3333,0 V 756.00001 H 1954.6667 1988 v 16.66667 16.66667 h -33.3333 -33.3334 z m 234.6667,0 v -16.66667 h 33.3333 33.3334 v 16.66667 16.66667 H 2189.3333 2156 Z m 93.3333,0 V 756.00001 H 2282.6667 2316 v 16.66667 16.66667 h -33.3333 -33.3334 z M 76,679.33335 v -16.66667 h 33.33333 33.33334 v 16.66667 16.66666 H 109.33333 76 Z m 428,-46.66667 v -16.66667 h 33.33333 33.33334 v 16.66667 16.66666 H 537.33333 504 Z m 93.33333,0 V 616.00001 H 630.66667 664 v 16.66667 16.66666 h -33.33333 -33.33334 z m 234.66667,0 v -16.66667 h 33.33333 33.33334 v 16.66667 16.66666 H 865.33333 832 Z m 93.33333,0 V 616.00001 H 958.66667 992 v 16.66667 16.66666 h -33.33333 -33.33334 z m 115.99997,0 V 616.00001 H 1074.6667 1108 v 16.66667 16.66666 h -33.3333 -33.3334 z m 93.3334,0 V 616.00001 H 1168 h 33.3333 v 16.66667 16.66666 H 1168 1134.6667 Z m 234.6666,0 V 616.00001 H 1402.6667 1436 v 16.66667 16.66666 h -33.3333 -33.3334 z m 93.3334,0 V 616.00001 H 1496 h 33.3333 v 16.66667 16.66666 H 1496 1462.6667 Z m 365.3333,0 v -16.66667 h 33.3333 33.3334 v 16.66667 16.66666 H 1861.3333 1828 Z m 93.3333,0 V 616.00001 H 1954.6667 1988 v 16.66667 16.66666 h -33.3333 -33.3334 z m 234.6667,0 v -16.66667 h 33.3333 33.3334 v 16.66667 16.66666 H 2189.3333 2156 Z m 93.3333,0 V 616.00001 H 2282.6667 2316 v 16.66667 16.66666 h -33.3333 -33.3334 z M 76,552.66668 v -16.66667 h 33.33333 33.33334 v 16.66667 16.66666 H 109.33333 76 Z m 428,-46.66667 v -16.66667 h 33.33333 33.33334 v 16.66667 16.66667 H 537.33333 504 Z m 93.33333,0 V 489.33334 H 630.66667 664 v 16.66667 16.66667 h -33.33333 -33.33334 z m 234.66667,0 v -16.66667 h 33.33333 33.33334 v 16.66667 16.66667 H 865.33333 832 Z m 93.33333,0 V 489.33334 H 958.66667 992 v 16.66667 16.66667 h -33.33333 -33.33334 z m 115.99997,0 V 489.33334 H 1074.6667 1108 v 16.66667 16.66667 h -33.3333 -33.3334 z m 93.3334,0 V 489.33334 H 1168 h 33.3333 v 16.66667 16.66667 H 1168 1134.6667 Z m 234.6666,0 V 489.33334 H 1402.6667 1436 v 16.66667 16.66667 h -33.3333 -33.3334 z m 93.3334,0 V 489.33334 H 1496 h 33.3333 v 16.66667 16.66667 H 1496 1462.6667 Z m 365.3333,0 v -16.66667 h 33.3333 33.3334 v 16.66667 16.66667 H 1861.3333 1828 Z m 93.3333,0 V 489.33334 H 1954.6667 1988 v 16.66667 16.66667 h -33.3333 -33.3334 z m 234.6667,0 v -16.66667 h 33.3333 33.3334 v 16.66667 16.66667 H 2189.3333 2156 Z m 93.3333,0 V 489.33334 H 2282.6667 2316 v 16.66667 16.66667 h -33.3333 -33.3334 z M 76,412.66667 v -16.66666 h 33.33333 33.33334 v 16.66666 16.66667 H 109.33333 76 Z M 1389.4475,302.48171 c -10.1827,-1.87561 -20.2874,-10.45632 -24.1264,-20.48761 -1.7256,-4.50907 -2.1404,-15.97894 -0.7376,-20.39871 0.9216,-2.90357 1.1913,-2.92872 31.4165,-2.92872 34.818,0 32.4072,-0.94873 32.2845,12.70471 -0.1814,20.1994 -18.4828,34.85953 -38.837,31.11033 z m 113.3333,0 c -10.1827,-1.87561 -20.2873,-10.45632 -24.1264,-20.48761 -1.7256,-4.50907 -2.1404,-15.97894 -0.7376,-20.39871 0.9216,-2.90357 1.1913,-2.92872 31.4165,-2.92872 34.818,0 32.4072,-0.94873 32.2846,12.70471 -0.1815,20.1994 -18.4828,34.85953 -38.8371,31.11033 z m 113.3333,0 c -10.1826,-1.87561 -20.2873,-10.45632 -24.1264,-20.48761 -1.7256,-4.50907 -2.1404,-15.97894 -0.7376,-20.39871 0.9216,-2.90357 1.1914,-2.92872 31.4166,-2.92872 34.818,0 32.4072,-0.94873 32.2845,12.70471 -0.1815,20.1994 -18.4828,34.85953 -38.8371,31.11033 z m 113.3334,0 c -10.1827,-1.87561 -20.2874,-10.45632 -24.1264,-20.48761 -1.7256,-4.50907 -2.1404,-15.97894 -0.7376,-20.39871 0.9216,-2.90357 1.1913,-2.92872 31.4165,-2.92872 34.818,0 32.4072,-0.94873 32.2845,12.70471 -0.1814,20.1994 -18.4828,34.85953 -38.837,31.11033 z m 113.3333,0 c -10.1827,-1.87561 -20.2873,-10.45632 -24.1264,-20.48761 -1.7256,-4.50907 -2.1404,-15.97894 -0.7376,-20.39871 0.9216,-2.90357 1.1913,-2.92872 31.4165,-2.92872 34.818,0 32.4072,-0.94873 32.2846,12.70471 -0.1815,20.1994 -18.4828,34.85953 -38.8371,31.11033 z m 113.3333,0 c -10.1826,-1.87561 -20.2873,-10.45632 -24.1264,-20.48761 -1.7256,-4.50907 -2.1404,-15.97894 -0.7376,-20.39871 0.9216,-2.90357 1.1914,-2.92872 31.4166,-2.92872 34.818,0 32.4072,-0.94873 32.2845,12.70471 -0.1815,20.1994 -18.4828,34.85953 -38.8371,31.11033 z M 76,286.00001 v -16.66667 h 33.33333 33.33334 v 16.66667 16.66666 H 109.33333 76 Z M 122.66667,101.33334 V 68.000001 H 139.33333 156 v 33.333339 33.33333 h -16.66667 -16.66666 z m 126.66666,0 V 68.000001 H 266 282.66667 v 33.333339 33.33333 H 266 249.33333 Z m 97.33334,0 V 68.000001 H 363.33333 380 v 33.333339 33.33333 h -16.66667 -16.66666 z m 126.66666,0 V 68.000001 H 490 506.66667 v 33.333339 33.33333 H 490 473.33333 Z m 97.33334,0 V 68.000001 H 587.33333 604 v 33.333339 33.33333 h -16.66667 -16.66666 z m 126.66666,0 V 68.000001 H 714 730.66667 v 33.333339 33.33333 H 714 697.33333 Z m 97.33334,0 V 68.000001 H 811.33333 828 v 33.333339 33.33333 h -16.66667 -16.66666 z m 126.66666,0 V 68.000001 H 938 954.66667 v 33.333339 33.33333 H 938 921.33333 Z"
         id="path101" />
    </g>
    <text
       xml:space="preserve"
       style="font-style:normal;font-weight:normal;font-size:40px;line-height:1.25;font-family:sans-serif;fill:#000000;fill-opacity:1;stroke:none"
       x="190.03378"
       y="111.71653"
       id="text3137"><tspan
         sodipodi:role="line"
         id="tspan3135"
         x="190.03378"
         y="111.71653">1</tspan></text>
    <text
       xml:space="preserve"
       style="font-style:normal;font-weight:normal;font-size:40px;line-height:1.25;font-family:sans-serif;fill:#000000;fill-opacity:1;stroke:none"
       x="414.97766"
       y="114.00513"
       id="text14925"><tspan
         sodipodi:role="line"
         id="tspan14923"
         x="414.97766"
         y="114.00513">2</tspan></text>
    <text
       xml:space="preserve"
       style="font-style:normal;font-weight:normal;font-size:40px;line-height:1.25;font-family:sans-serif;fill:#000000;fill-opacity:1;stroke:none"
       x="638.3562"
       y="113.81921"
       id="text16425"><tspan
         sodipodi:role="line"
         id="tspan16423"
         x="638.3562"
         y="113.81921">3</tspan></text>
    <text
       xml:space="preserve"
       style="font-style:normal;font-weight:normal;font-size:40px;line-height:1.25;font-family:sans-serif;fill:#000000;fill-opacity:1;stroke:none"
       x="864.00116"
       y="114.39604"
       id="text19355"><tspan
         sodipodi:role="line"
         id="tspan19353"
         x="864.00116"
         y="114.39604">4</tspan></text>
    <text
       xml:space="preserve"
       style="font-style:normal;font-weight:normal;font-size:40px;line-height:1.25;font-family:sans-serif;fill:#000000;fill-opacity:1;stroke:none"
       x="94.482109"
       y="365.64896"
       id="text24309"><tspan
         sodipodi:role="line"
         id="tspan24307"
         x="94.482109"
         y="365.64896">5</tspan></text>
    <text
       xml:space="preserve"
       style="font-style:normal;font-weight:normal;font-size:40px;line-height:1.25;font-family:sans-serif;fill:#000000;fill-opacity:1;stroke:none"
       x="95.35141"
       y="630.85126"
       id="text25171"><tspan
         sodipodi:role="line"
         id="tspan25169"
         x="95.35141"
         y="630.85126">6</tspan></text>
    <text
       xml:space="preserve"
       style="font-style:normal;font-weight:normal;font-size:40px;line-height:1.25;font-family:sans-serif;fill:#000000;fill-opacity:1;stroke:none"
       x="93.666321"
       y="898.9823"
       id="text26605"><tspan
         sodipodi:role="line"
         id="tspan26603"
         x="93.666321"
         y="898.9823">7</tspan></text>
    <text
       xml:space="preserve"
       style="font-style:normal;font-weight:normal;font-size:40px;line-height:1.25;font-family:sans-serif;fill:#000000;fill-opacity:1;stroke:none"
       x="573.11401"
       y="589.89502"
       id="text27621"><tspan
         sodipodi:role="line"
         id="tspan27619"
         x="573.11401"
         y="589.89502">8</tspan></text>
    <text
       xml:space="preserve"
       style="font-style:normal;font-weight:normal;font-size:40px;line-height:1.25;font-family:sans-serif;fill:#000000;fill-opacity:1;stroke:none"
       x="905.19293"
       y="582.21863"
       id="text28549"><tspan
         sodipodi:role="line"
         id="tspan28547"
         x="905.19293"
         y="582.21863">9</tspan></text>
    <text
       xml:space="preserve"
       style="font-style:normal;font-weight:normal;font-size:40px;line-height:1.25;font-family:sans-serif;fill:#000000;fill-opacity:1;stroke:none"
       x="561.69312"
       y="854.93018"
       id="text29939"><tspan
         sodipodi:role="line"
         id="tspan29937"
         x="561.69312"
         y="854.93018">10</tspan></text>
    <text
       xml:space="preserve"
       style="font-style:normal;font-weight:normal;font-size:40px;line-height:1.25;font-family:sans-serif;fill:#000000;fill-opacity:1;stroke:none"
       x="891.79071"
       y="847.36664"
       id="text31109"><tspan
         sodipodi:role="line"
         id="tspan31107"
         x="891.79071"
         y="847.36664">11</tspan></text>
    <text
       xml:space="preserve"
       style="font-style:normal;font-weight:normal;font-size:40px;line-height:1.25;font-family:sans-serif;fill:#000000;fill-opacity:1;stroke:none"
       x="585.86829"
       y="1073.9471"
       id="text32587"><tspan
         sodipodi:role="line"
         id="tspan32585"
         x="585.86829"
         y="1073.9471">12</tspan></text>
    <text
       xml:space="preserve"
       style="font-style:normal;font-weight:normal;font-size:40px;line-height:1.25;font-family:sans-serif;fill:#000000;fill-opacity:1;stroke:none"
       x="834.68402"
       y="1079.6576"
       id="text33493"><tspan
         sodipodi:role="line"
         id="tspan33491"
         x="834.68402"
         y="1079.6576">13</tspan></text>
    <text
       xml:space="preserve"
       style="font-style:normal;font-weight:normal;font-size:40px;line-height:1.25;font-family:sans-serif;fill:#000000;fill-opacity:1;stroke:none"
       x="1090.8687"
       y="589.07928"
       id="text36291"><tspan
         sodipodi:role="line"
         id="tspan36289"
         x="1090.8687"
         y="589.07928">14</tspan></text>
    <text
       xml:space="preserve"
       style="font-style:normal;font-weight:normal;font-size:40px;line-height:1.25;font-family:sans-serif;fill:#000000;fill-opacity:1;stroke:none"
       x="1431.1053"
       y="589.07922"
       id="text37659"><tspan
         sodipodi:role="line"
         id="tspan37657"
         x="1431.1053"
         y="589.07922">15</tspan></text>
    <text
       xml:space="preserve"
       style="font-style:normal;font-weight:normal;font-size:40px;line-height:1.25;font-family:sans-serif;fill:#000000;fill-opacity:1;stroke:none"
       x="1877.5354"
       y="589.07922"
       id="text38477"><tspan
         sodipodi:role="line"
         id="tspan38475"
         x="1877.5354"
         y="589.07922">16</tspan></text>
    <text
       xml:space="preserve"
       style="font-style:normal;font-weight:normal;font-size:40px;line-height:1.25;font-family:sans-serif;fill:#000000;fill-opacity:1;stroke:none"
       x="1091.6844"
       y="859.82483"
       id="text39911"><tspan
         sodipodi:role="line"
         id="tspan39909"
         x="1091.6844"
         y="859.82483">17</tspan></text>
    <text
       xml:space="preserve"
       style="font-style:normal;font-weight:normal;font-size:40px;line-height:1.25;font-family:sans-serif;fill:#000000;fill-opacity:1;stroke:none"
       x="1421.8777"
       y="858.1933"
       id="text41059"><tspan
         sodipodi:role="line"
         id="tspan41057"
         x="1421.8777"
         y="858.1933">18</tspan></text>
    <text
       xml:space="preserve"
       style="font-style:normal;font-weight:normal;font-size:40px;line-height:1.25;font-family:sans-serif;fill:#000000;fill-opacity:1;stroke:none"
       x="1885.6931"
       y="858.1933"
       id="text41393"><tspan
         sodipodi:role="line"
         id="tspan41391"
         x="1885.6931"
         y="858.1933">19</tspan></text>
    <text
       xml:space="preserve"
       style="font-style:normal;font-weight:normal;font-size:40px;line-height:1.25;font-family:sans-serif;fill:#000000;fill-opacity:1;stroke:none"
       x="1157.6488"
       y="1080.4734"
       id="text42929"><tspan
         sodipodi:role="line"
         id="tspan42927"
         x="1157.6488"
         y="1080.4734">20</tspan></text>
    <text
       xml:space="preserve"
       style="font-style:normal;font-weight:normal;font-size:40px;line-height:1.25;font-family:sans-serif;fill:#000000;fill-opacity:1;stroke:none"
       x="1407.2804"
       y="1076.3945"
       id="text43747"><tspan
         sodipodi:role="line"
         id="tspan43745"
         x="1407.2804"
         y="1076.3945">21</tspan></text>
    <text
       xml:space="preserve"
       style="font-style:normal;font-weight:normal;font-size:40px;line-height:1.25;font-family:sans-serif;fill:#000000;fill-opacity:1;stroke:none"
       x="1898.3243"
       y="1076.3945"
       id="text45049"><tspan
         sodipodi:role="line"
         id="tspan45047"
         x="1898.3243"
         y="1076.3945">22</tspan></text>
    <text
       xml:space="preserve"
       style="font-style:normal;font-weight:normal;font-size:40px;line-height:1.25;font-family:sans-serif;fill:#000000;fill-opacity:1;stroke:none"
       x="2212.1433"
       y="586.63861"
       id="text66235"><tspan
         sodipodi:role="line"
         id="tspan66233"
         x="2212.1433"
         y="586.63861">23</tspan></text>
    <text
       xml:space="preserve"
       style="font-style:normal;font-weight:normal;font-size:40px;line-height:1.25;font-family:sans-serif;fill:#000000;fill-opacity:1;stroke:none"
       x="2210.9897"
       y="856.76636"
       id="text66899"><tspan
         sodipodi:role="line"
         id="tspan66897"
         x="2210.9897"
         y="856.76636">24</tspan></text>
    <text
       xml:space="preserve"
       style="font-style:normal;font-weight:normal;font-size:40px;line-height:1.25;font-family:sans-serif;fill:#000000;fill-opacity:1;stroke:none"
       x="2141.1257"
       y="1072.1516"
       id="text67559"><tspan
         sodipodi:role="line"
         id="tspan67557"
         x="2141.1257"
         y="1072.1516">25</tspan></text>
    <text
       xml:space="preserve"
       style="font-style:normal;font-weight:normal;font-size:40px;line-height:1.25;font-family:sans-serif;fill:#000000;fill-opacity:1;stroke:none"
       x="73.125671"
       y="1373.485"
       id="text69235"><tspan
         sodipodi:role="line"
         id="tspan69233"
         x="73.125671"
         y="1373.485">26</tspan></text>
    <text
       xml:space="preserve"
       style="font-style:normal;font-weight:normal;font-size:40px;line-height:1.25;font-family:sans-serif;fill:#000000;fill-opacity:1;stroke:none"
       x="70.818298"
       y="1634.3832"
       id="text70273"><tspan
         sodipodi:role="line"
         id="tspan70271"
         x="70.818298"
         y="1634.3832">27</tspan></text>
    <text
       xml:space="preserve"
       style="font-style:normal;font-weight:normal;font-size:40px;line-height:1.25;font-family:sans-serif;fill:#000000;fill-opacity:1;stroke:none"
       x="450.45901"
       y="1373.485"
       id="text71465"><tspan
         sodipodi:role="line"
         id="tspan71463"
         x="450.45901"
         y="1373.485">28</tspan></text>
    <text
       xml:space="preserve"
       style="font-style:normal;font-weight:normal;font-size:40px;line-height:1.25;font-family:sans-serif;fill:#000000;fill-opacity:1;stroke:none"
       x="451.6127"
       y="1638.9979"
       id="text72745"><tspan
         sodipodi:role="line"
         id="tspan72743"
         x="451.6127"
         y="1638.9979">29</tspan></text>
    <text
       xml:space="preserve"
       style="font-style:normal;font-weight:normal;font-size:40px;line-height:1.25;font-family:sans-serif;fill:#000000;fill-opacity:1;stroke:none"
       x="782.45898"
       y="1335.3853"
       id="text73541"><tspan
         sodipodi:role="line"
         id="tspan73539"
         x="782.45898"
         y="1335.3853">30</tspan></text>
    <text
       xml:space="preserve"
       style="font-style:normal;font-weight:normal;font-size:40px;line-height:1.25;font-family:sans-serif;fill:#000000;fill-opacity:1;stroke:none"
       x="782.09967"
       y="1657.6926"
       id="text74469"><tspan
         sodipodi:role="line"
         id="tspan74467"
         x="782.09967"
         y="1657.6926">31</tspan></text>
    <text
       xml:space="preserve"
       style="font-style:normal;font-weight:normal;font-size:40px;line-height:1.25;font-family:sans-serif;fill:#000000;fill-opacity:1;stroke:none"
       x="1146.2794"
       y="1336.5389"
       id="text75793"><tspan
         sodipodi:role="line"
         id="tspan75791"
         x="1146.2794"
         y="1336.5389">32</tspan></text>
    <text
       xml:space="preserve"
       style="font-style:normal;font-weight:normal;font-size:40px;line-height:1.25;font-family:sans-serif;fill:#000000;fill-opacity:1;stroke:none"
       x="1145.92"
       y="1657.6926"
       id="text76853"><tspan
         sodipodi:role="line"
         id="tspan76851"
         x="1145.92"
         y="1657.6926">33</tspan></text>
    <text
       xml:space="preserve"
       style="font-style:normal;font-weight:normal;font-size:40px;line-height:1.25;font-family:sans-serif;fill:#000000;fill-opacity:1;stroke:none"
       x="1428.7664"
       y="1368.8702"
       id="text77847"><tspan
         sodipodi:role="line"
         id="tspan77845"
         x="1428.7664"
         y="1368.8702">34</tspan></text>
    <text
       xml:space="preserve"
       style="font-style:normal;font-weight:normal;font-size:40px;line-height:1.25;font-family:sans-serif;fill:#000000;fill-opacity:1;stroke:none"
       x="1429.92"
       y="1640.1516"
       id="text79809"><tspan
         sodipodi:role="line"
         id="tspan79807"
         x="1429.92"
         y="1640.1516">35</tspan></text>
    <text
       xml:space="preserve"
       style="font-style:normal;font-weight:normal;font-size:40px;line-height:1.25;font-family:sans-serif;fill:#000000;fill-opacity:1;stroke:none"
       x="2013.1257"
       y="1338.8463"
       id="text81265"><tspan
         sodipodi:role="line"
         id="tspan81263"
         x="2013.1257"
         y="1338.8463">36</tspan></text>
    <text
       xml:space="preserve"
       style="font-style:normal;font-weight:normal;font-size:40px;line-height:1.25;font-family:sans-serif;fill:#000000;fill-opacity:1;stroke:none"
       x="2006.9979"
       y="1662.8184"
       id="text82677"><tspan
         sodipodi:role="line"
         id="tspan82675"
         x="2006.9979"
         y="1662.8184">37</tspan></text>
    <text
       xml:space="preserve"
       style="font-style:normal;font-weight:normal;font-size:40px;line-height:1.25;font-family:sans-serif;fill:#000000;fill-opacity:1;stroke:none"
       x="1992"
       y="1646.6667"
       id="text86695"><tspan
         sodipodi:role="line"
         id="tspan86693"
         x="1992"
         y="1646.6667" /></text>
  </g>
</svg>
